<svg xmlns="http://www.w3.org/2000/svg" width="155.882" height="165.075" viewBox="0 0 155.882 165.075"><g id="Group_5881" data-name="Group 5881" transform="translate(-1629 -576)"><path id="Path_64099" data-name="Path 64099" d="M155.141,4.306a4.343,4.343,0,0,1-4.39-4.3V0h-5.278a4.342,4.342,0,0,1-4.39,4.292A4.342,4.342,0,0,1,136.692,0h-5.278a4.352,4.352,0,0,1-4.4,4.292A4.342,4.342,0,0,1,122.626,0h-5.278a4.352,4.352,0,0,1-4.4,4.292A4.342,4.342,0,0,1,108.561,0h-5.278a4.348,4.348,0,0,1-4.4,4.292A4.346,4.346,0,0,1,94.5,0H89.217a4.346,4.346,0,0,1-4.391,4.292A4.348,4.348,0,0,1,80.429,0H75.152a4.342,4.342,0,0,1-4.39,4.292A4.353,4.353,0,0,1,66.364,0H61.086A4.342,4.342,0,0,1,56.7,4.292,4.352,4.352,0,0,1,52.3,0H47.021A4.342,4.342,0,0,1,42.63,4.292,4.342,4.342,0,0,1,38.24,0H32.962a4.352,4.352,0,0,1-4.4,4.292A4.342,4.342,0,0,1,24.174,0H18.9a4.348,4.348,0,0,1-4.4,4.292A4.342,4.342,0,0,1,10.109,0H4.719A4.343,4.343,0,0,1,.329,4.3C.217,4.3.112,4.292,0,4.286V9.479c.112-.007.217-.014.329-.014a4.342,4.342,0,0,1,4.39,4.272,4.348,4.348,0,0,1-4.39,4.278C.217,18.015.112,18.008,0,18v5.236c.112-.007.217-.014.329-.014a4.276,4.276,0,1,1,0,8.55c-.112,0-.217-.007-.329-.014V37a2.556,2.556,0,0,1,.329-.021,4.348,4.348,0,0,1,4.39,4.279,4.343,4.343,0,0,1-4.39,4.272c-.112,0-.217-.007-.329-.014v5.243c.112-.007.217-.014.329-.014a4.342,4.342,0,0,1,4.39,4.272A4.348,4.348,0,0,1,.329,59.3,2.558,2.558,0,0,1,0,59.275v5.243c.112-.007.217-.014.329-.014a4.342,4.342,0,0,1,4.39,4.271,4.348,4.348,0,0,1-4.39,4.279c-.112,0-.217-.007-.329-.014v5.237c.112-.007.217-.014.329-.014a4.348,4.348,0,0,1,4.39,4.279,4.342,4.342,0,0,1-4.39,4.271c-.112,0-.217-.007-.329-.014v5.244c.112-.007.217-.021.329-.021a4.28,4.28,0,1,1,0,8.557c-.112,0-.217-.014-.329-.021V105.8c.112-.007.217-.014.329-.014a4.342,4.342,0,0,1,4.39,4.272,4.348,4.348,0,0,1-4.39,4.279c-.112,0-.217-.007-.329-.014v5.236c.112-.007.217-.014.329-.014a4.348,4.348,0,0,1,4.39,4.278,4.342,4.342,0,0,1-4.39,4.272c-.112,0-.217-.007-.329-.014v5.243c.112-.007.217-.021.329-.021a4.28,4.28,0,1,1,0,8.557c-.112,0-.217-.014-.329-.021v5.243c.112-.007.217-.014.329-.014a4.342,4.342,0,0,1,4.39,4.272,4.348,4.348,0,0,1-4.39,4.278c-.112,0-.217-.007-.329-.014V160.8c.112-.007.217-.021.329-.021a4.348,4.348,0,0,1,4.39,4.3h5.39a4.395,4.395,0,0,1,8.787,0h5.278a4.4,4.4,0,0,1,8.788,0H38.24a4.392,4.392,0,0,1,8.781,0H52.3a4.395,4.395,0,0,1,8.787,0h5.278a4.4,4.4,0,0,1,8.788,0h5.278a4.4,4.4,0,0,1,8.788,0H94.5a4.395,4.395,0,0,1,8.787,0h5.278a4.395,4.395,0,0,1,8.787,0h5.278a4.395,4.395,0,0,1,8.787,0h5.278a4.391,4.391,0,0,1,8.78,0h5.278v-.007a4.352,4.352,0,0,1,5.131-4.229v-5.3a4.264,4.264,0,1,1,0-8.4v-5.355a4.271,4.271,0,1,1,0-8.4v-5.355a4.28,4.28,0,1,1-.741-8.473,5.225,5.225,0,0,1,.741.063v-5.348a5.145,5.145,0,0,1-.741.063,4.268,4.268,0,1,1,.741-8.473V100.5a4.28,4.28,0,1,1-.741-8.473,4.307,4.307,0,0,1,.741.07V86.743a4.271,4.271,0,1,1,0-8.4V72.985a5.224,5.224,0,0,1-.741.063,4.27,4.27,0,1,1,0-8.536,5.224,5.224,0,0,1,.741.063V59.22a4.265,4.265,0,1,1,0-8.4V45.461a4.28,4.28,0,1,1-.741-8.473,4.306,4.306,0,0,1,.741.07V31.7a5.223,5.223,0,0,1-.741.063,4.27,4.27,0,1,1,0-8.536,5.145,5.145,0,0,1,.741.063V17.939a4.355,4.355,0,0,1-5.131-4.2,4.394,4.394,0,0,1,5.131-4.2V4.243a5.145,5.145,0,0,1-.741.063" transform="translate(1629 576)" fill="#fffaee"></path><g id="Group_5859" data-name="Group 5859" transform="translate(1666 617)"><path id="Path_64289" data-name="Path 64289" d="M5447.015,0a5.752,5.752,0,0,1,4.043,4.975c.39,3.922.306,8.2.5,12.174.182,3.713.558,7.468.663,11.2.065,2.3.025,1.946-1.008,3.717-.361.619-.5,1.587-1.264,1.822-1,.31-1.862-.44-2.871-.559-3.322-.392-6.835,1.56-7.464,5.012-.206,1.131.255,3.19-.169,3.895s-2.229.94-3.1,1.444a6.783,6.783,0,0,0-1.276,10.438l16.584,12.014c1.393,1.993-1.221,2.609-2.437,3.581-2.774,2.218-4.573,6.208-2.769,9.586.592,1.109,1.812,1.631,1.512,2.968-.156.692-.713.88-1.34.937a70.862,70.862,0,0,1-9.6,0,1.389,1.389,0,0,1-1.423-1.014c-.793-2-.994-4.687-1.786-6.746-6.039-2.606-8.851-8.6-14.038-12.2-3.313-2.3-6.72-3.295-10.183-5.09-5.191-2.691-4.12-8.692,1.393-10.1a10.586,10.586,0,0,1,6.5.25c2.376.8,5.96,3.341,8.075,3.786a2.5,2.5,0,0,0,3.265-2.438c-2.119-13.756-4.7-27.477-6.487-41.262a5.517,5.517,0,0,1,10.789-.75l6.253,24.211c.1-2.025.07-4.073.157-6.1.25-5.784.535-11.59.826-17.372.114-2.26-.366-4.382,1.134-6.34A6.311,6.311,0,0,1,5444.578,0Z" transform="translate(-5406.214)" fill="#68101a"></path><path id="Path_64290" data-name="Path 64290" d="M5558.568,165.094l-9.072-9.856a3.882,3.882,0,0,1,3.778-6.052,5.935,5.935,0,0,1,2.86,1.689c2.807,2.344,5.333,5.1,8.119,7.479a5.086,5.086,0,0,0,.813.567l-5.112-9.267a3.619,3.619,0,0,1,5.59-4.128l7.971,10.47c-.146-2.436-1.173-5.175-1.3-7.56a3.437,3.437,0,0,1,6.577-1.7c2.4,4.775,3.611,11.151,6.067,15.868,1.089,2.091,3.117,4.137,4.281,6.281.948,1.744.986,3.044,1.514,4.823.694,2.34,2.328,3.322,3.466,5.321-.941,5.02-1.385,10.372-2.46,15.342-.307,1.417-.507,2.52-2.343,1.958L5578.453,190c-.826.14-1.63.443-2.461.563-3.673.528-6.564-.494-10.4.486-2.719.694-6.65,3.384-9.138,1.43-2.728-2.141-1.086-5.69,1.139-7.479,1.813-1.458,4.547-1.831,6.651-2.774.967-.663.467-1.54-.326-2.086l-20.3-14.632c-3.1-3.869.608-8.4,5.151-6.126,3.295,1.651,6.421,4.153,9.8,5.713" transform="translate(-5512.893 -113.262)" fill="#68101a"></path><path id="Path_64291" data-name="Path 64291" d="M5633.6,32.936c3.582-.482,5.778,2.328,5.543,5.705-.369,5.295-1.962,11.022-2.493,16.355a5.448,5.448,0,0,1-1.915,2.634c-1.412.579-1.738-.689-2.556-1.422a6.8,6.8,0,0,0-3.335-1.54c-2.26-.233-4.385,1.172-3.606-2.473,1.2-5.6,3.353-11.6,5.019-17.079a4.905,4.905,0,0,1,3.344-2.18" transform="translate(-5577.565 -25.744)" fill="#68101a"></path><path id="Path_64292" data-name="Path 64292" d="M5701.667,104.552a1.439,1.439,0,0,1-.187-1.631,30.862,30.862,0,0,1,4.046-5.377,4.607,4.607,0,0,1,7.311,3.894c-.045,1.579-2.463,6.591-3.281,8.259-.506,1.031-.631,1.886-2.014,1.74-1.105-.116-1.475-2.274-1.887-3.157a6.163,6.163,0,0,0-1.873-2.514c-.541-.42-1.843-.921-2.116-1.215" transform="translate(-5637.257 -75.679)" fill="#68101a"></path><path id="Path_64293" data-name="Path 64293" d="M5638.87,368.555c.5.505.1,2.7-.766,2.976a42.632,42.632,0,0,1-6.183-.008.775.775,0,0,1-.048-1.228,19.081,19.081,0,0,1,2.4-.968c.828-.288,3.988-1.377,4.6-.771" transform="translate(-5582.671 -288.411)" fill="#68101a"></path></g></g></svg>