<svg xmlns="http://www.w3.org/2000/svg" width="155.882" height="165.075" viewBox="0 0 155.882 165.075"><g id="Group_5887" data-name="Group 5887" transform="translate(-135 -576)"><path id="Path_64113" data-name="Path 64113" d="M155.141,4.306a4.343,4.343,0,0,1-4.39-4.3V0h-5.278a4.342,4.342,0,0,1-4.39,4.292A4.342,4.342,0,0,1,136.692,0h-5.278a4.352,4.352,0,0,1-4.4,4.292A4.342,4.342,0,0,1,122.626,0h-5.278a4.352,4.352,0,0,1-4.4,4.292A4.342,4.342,0,0,1,108.561,0h-5.278a4.348,4.348,0,0,1-4.4,4.292A4.346,4.346,0,0,1,94.5,0H89.217a4.346,4.346,0,0,1-4.391,4.292A4.348,4.348,0,0,1,80.429,0H75.152a4.342,4.342,0,0,1-4.39,4.292A4.353,4.353,0,0,1,66.364,0H61.086A4.342,4.342,0,0,1,56.7,4.292,4.352,4.352,0,0,1,52.3,0H47.021A4.342,4.342,0,0,1,42.63,4.292,4.342,4.342,0,0,1,38.24,0H32.962a4.352,4.352,0,0,1-4.4,4.292A4.342,4.342,0,0,1,24.174,0H18.9a4.348,4.348,0,0,1-4.4,4.292A4.342,4.342,0,0,1,10.109,0H4.719A4.343,4.343,0,0,1,.329,4.3C.217,4.3.112,4.292,0,4.286V9.479c.112-.007.217-.014.329-.014a4.342,4.342,0,0,1,4.39,4.272,4.348,4.348,0,0,1-4.39,4.278C.217,18.015.112,18.008,0,18v5.236c.112-.007.217-.014.329-.014a4.276,4.276,0,1,1,0,8.55c-.112,0-.217-.007-.329-.014V37a2.556,2.556,0,0,1,.329-.021,4.348,4.348,0,0,1,4.39,4.279,4.343,4.343,0,0,1-4.39,4.272c-.112,0-.217-.007-.329-.014v5.243c.112-.007.217-.014.329-.014a4.342,4.342,0,0,1,4.39,4.272A4.348,4.348,0,0,1,.329,59.3,2.558,2.558,0,0,1,0,59.275v5.243c.112-.007.217-.014.329-.014a4.342,4.342,0,0,1,4.39,4.271,4.348,4.348,0,0,1-4.39,4.279c-.112,0-.217-.007-.329-.014v5.237c.112-.007.217-.014.329-.014a4.348,4.348,0,0,1,4.39,4.279,4.342,4.342,0,0,1-4.39,4.271c-.112,0-.217-.007-.329-.014v5.244c.112-.007.217-.021.329-.021a4.28,4.28,0,1,1,0,8.557c-.112,0-.217-.014-.329-.021V105.8c.112-.007.217-.014.329-.014a4.342,4.342,0,0,1,4.39,4.272,4.348,4.348,0,0,1-4.39,4.279c-.112,0-.217-.007-.329-.014v5.236c.112-.007.217-.014.329-.014a4.348,4.348,0,0,1,4.39,4.278,4.342,4.342,0,0,1-4.39,4.272c-.112,0-.217-.007-.329-.014v5.243c.112-.007.217-.021.329-.021a4.28,4.28,0,1,1,0,8.557c-.112,0-.217-.014-.329-.021v5.243c.112-.007.217-.014.329-.014a4.342,4.342,0,0,1,4.39,4.272,4.348,4.348,0,0,1-4.39,4.278c-.112,0-.217-.007-.329-.014V160.8c.112-.007.217-.021.329-.021a4.348,4.348,0,0,1,4.39,4.3h5.39a4.395,4.395,0,0,1,8.787,0h5.278a4.4,4.4,0,0,1,8.788,0H38.24a4.392,4.392,0,0,1,8.781,0H52.3a4.395,4.395,0,0,1,8.787,0h5.278a4.4,4.4,0,0,1,8.788,0h5.278a4.4,4.4,0,0,1,8.788,0H94.5a4.395,4.395,0,0,1,8.787,0h5.278a4.395,4.395,0,0,1,8.787,0h5.278a4.395,4.395,0,0,1,8.787,0h5.278a4.391,4.391,0,0,1,8.78,0h5.278v-.007a4.352,4.352,0,0,1,5.131-4.229v-5.3a4.264,4.264,0,1,1,0-8.4v-5.355a4.271,4.271,0,1,1,0-8.4v-5.355a4.28,4.28,0,1,1-.741-8.473,5.225,5.225,0,0,1,.741.063v-5.348a5.145,5.145,0,0,1-.741.063,4.268,4.268,0,1,1,.741-8.473V100.5a4.28,4.28,0,1,1-.741-8.473,4.307,4.307,0,0,1,.741.07V86.743a4.271,4.271,0,1,1,0-8.4V72.985a5.224,5.224,0,0,1-.741.063,4.27,4.27,0,1,1,0-8.536,5.224,5.224,0,0,1,.741.063V59.22a4.265,4.265,0,1,1,0-8.4V45.461a4.28,4.28,0,1,1-.741-8.473,4.306,4.306,0,0,1,.741.07V31.7a5.223,5.223,0,0,1-.741.063,4.27,4.27,0,1,1,0-8.536,5.145,5.145,0,0,1,.741.063V17.939a4.355,4.355,0,0,1-5.131-4.2,4.394,4.394,0,0,1,5.131-4.2V4.243a5.145,5.145,0,0,1-.741.063" transform="translate(135 576)" fill="#fffaee"></path><g id="Group_5872" data-name="Group 5872" transform="translate(-7501.304 13779)"><path id="Path_64326" data-name="Path 64326" d="M.212,149.931c3.289-.21,3.949,3.829,7.3,3.892,3.218.061,4.191-3.592,6.642-3.9,4.038-.5,4.03,2.741,6.889,3.646,4.215,1.335,5.044-3.212,7.715-3.63,4.458-.7,4.643,3.812,8.3,3.881,3.226.061,4.092-3.5,6.473-3.881,4.122-.658,4.176,2.718,7.058,3.63,3.592,1.137,4.625-2.089,7.242-3.457v45.611H.212Z" transform="translate(7677.144 -13274.96)" fill="#68101a"></path><path id="Path_64327" data-name="Path 64327" d="M259.508,150.118v45.8h-13.3V150.3c2.243,1.056,3.13,3.762,6,3.708,3.306-.063,4.068-4.153,7.3-3.892" transform="translate(7491.713 -13275.147)" fill="#68101a"></path><path id="Path_64328" data-name="Path 64328" d="M17.778,34.755a7.163,7.163,0,0,0-6.928.55c-.937.61-2.615,2.829-3.491,2.773-.729-.047-1.9-1.594-2.5-2.124-.474-.415-1.474-.884-1.768-1.187C2.344,34,.638,22.956.444,21.159c-.522-4.837-1.227-16.042,2.1-19.83C4.816-1.26,7.831.4,9.847,2.339c3.183,3.057,8.419,12.373,9.6,16.618.373,1.336-.608,2.521-.979,3.838-1.08,3.834-.564,8.01-.692,11.959M7.757,21.223a16.438,16.438,0,0,0,.978-2.438,64.153,64.153,0,0,0,2.722-8.173c.32-1.972-1.75-2.6-2.579-1.1-1.446,2.614-2,7.235-3.425,10.054a1.455,1.455,0,0,0,2.3,1.659m5.73-1.207c-.8.067-1.05.629-1.336,1.261-1.373,3.029-2.01,6.862-3.345,9.966a1.4,1.4,0,0,0,2.615.937l3.6-10.81a1.472,1.472,0,0,0-1.534-1.354" transform="translate(7677.304 -13162)" fill="#68101a"></path><path id="Path_64329" data-name="Path 64329" d="M160.613,77.358a22.909,22.909,0,0,1,1.058-4.3c2.27-6.61,9.354-13.424,15.56-6.505a8.007,8.007,0,0,1,9.474-6.794,1.645,1.645,0,0,1,.489,2.813c-.819.527-1.579.068-2.455.121-2.407.146-4.184,2.334-4.551,4.6,4.955-1.863,8.685,1.137,9.917,5.871.414,1.59.774,6.189.141,7.605a8.762,8.762,0,0,1-2.593,2.219c-.909.059-2.128-1.73-2.847-2.309a7.336,7.336,0,0,0-8.958-.275c-.745.565-2.141,2.53-2.968,2.583-.872.056-2.618-2.233-3.6-2.845a7.321,7.321,0,0,0-8.664.631c.074-1.107-.1-2.324,0-3.416" transform="translate(7556.26 -13206.912)" fill="#68101a"></path><path id="Path_64330" data-name="Path 64330" d="M101.671,42.155v4.432a11.754,11.754,0,0,1,5.535,3.6,20.669,20.669,0,0,0-7.195,14.037c-.138,1.869.117,3.771.088,5.631-1.118-.374-1.787-1.6-2.674-2.312a7.213,7.213,0,0,0-9.139-.086c-1.374,1.087-2.625,3.84-4.305,1.343.308-4.846-.959-10.667.981-15.193a12.854,12.854,0,0,1,7.845-7.021V42.155Z" transform="translate(7614.095 -13193.775)" fill="#68101a"></path><rect id="Rectangle_1928" data-name="Rectangle 1928" width="11.818" height="4.432" transform="translate(7705.424 -13159.007)" fill="#68101a"></rect></g></g></svg>