<svg xmlns="http://www.w3.org/2000/svg" id="Group_5320" data-name="Group 5320" width="155.882" height="165.075" viewBox="0 0 155.882 165.075"><path id="Path_64098" data-name="Path 64098" d="M155.141,4.306a4.343,4.343,0,0,1-4.39-4.3V0h-5.278a4.342,4.342,0,0,1-4.39,4.292A4.342,4.342,0,0,1,136.692,0h-5.278a4.352,4.352,0,0,1-4.4,4.292A4.342,4.342,0,0,1,122.626,0h-5.278a4.352,4.352,0,0,1-4.4,4.292A4.342,4.342,0,0,1,108.561,0h-5.278a4.348,4.348,0,0,1-4.4,4.292A4.346,4.346,0,0,1,94.5,0H89.217a4.346,4.346,0,0,1-4.391,4.292A4.348,4.348,0,0,1,80.429,0H75.152a4.342,4.342,0,0,1-4.39,4.292A4.353,4.353,0,0,1,66.364,0H61.086A4.342,4.342,0,0,1,56.7,4.292,4.352,4.352,0,0,1,52.3,0H47.021A4.342,4.342,0,0,1,42.63,4.292,4.342,4.342,0,0,1,38.24,0H32.962a4.352,4.352,0,0,1-4.4,4.292A4.342,4.342,0,0,1,24.174,0H18.9a4.348,4.348,0,0,1-4.4,4.292A4.342,4.342,0,0,1,10.109,0H4.719A4.343,4.343,0,0,1,.329,4.3C.217,4.3.112,4.292,0,4.286V9.479c.112-.007.217-.014.329-.014a4.342,4.342,0,0,1,4.39,4.272,4.348,4.348,0,0,1-4.39,4.278C.217,18.015.112,18.008,0,18v5.236c.112-.007.217-.014.329-.014a4.276,4.276,0,1,1,0,8.55c-.112,0-.217-.007-.329-.014V37a2.556,2.556,0,0,1,.329-.021,4.348,4.348,0,0,1,4.39,4.279,4.343,4.343,0,0,1-4.39,4.272c-.112,0-.217-.007-.329-.014v5.243c.112-.007.217-.014.329-.014a4.342,4.342,0,0,1,4.39,4.272A4.348,4.348,0,0,1,.329,59.3,2.558,2.558,0,0,1,0,59.275v5.243c.112-.007.217-.014.329-.014a4.342,4.342,0,0,1,4.39,4.271,4.348,4.348,0,0,1-4.39,4.279c-.112,0-.217-.007-.329-.014v5.237c.112-.007.217-.014.329-.014a4.348,4.348,0,0,1,4.39,4.279,4.342,4.342,0,0,1-4.39,4.271c-.112,0-.217-.007-.329-.014v5.244c.112-.007.217-.021.329-.021a4.28,4.28,0,1,1,0,8.557c-.112,0-.217-.014-.329-.021V105.8c.112-.007.217-.014.329-.014a4.342,4.342,0,0,1,4.39,4.272,4.348,4.348,0,0,1-4.39,4.279c-.112,0-.217-.007-.329-.014v5.236c.112-.007.217-.014.329-.014a4.348,4.348,0,0,1,4.39,4.278,4.342,4.342,0,0,1-4.39,4.272c-.112,0-.217-.007-.329-.014v5.243c.112-.007.217-.021.329-.021a4.28,4.28,0,1,1,0,8.557c-.112,0-.217-.014-.329-.021v5.243c.112-.007.217-.014.329-.014a4.342,4.342,0,0,1,4.39,4.272,4.348,4.348,0,0,1-4.39,4.278c-.112,0-.217-.007-.329-.014V160.8c.112-.007.217-.021.329-.021a4.348,4.348,0,0,1,4.39,4.3h5.39a4.395,4.395,0,0,1,8.787,0h5.278a4.4,4.4,0,0,1,8.788,0H38.24a4.392,4.392,0,0,1,8.781,0H52.3a4.395,4.395,0,0,1,8.787,0h5.278a4.4,4.4,0,0,1,8.788,0h5.278a4.4,4.4,0,0,1,8.788,0H94.5a4.395,4.395,0,0,1,8.787,0h5.278a4.395,4.395,0,0,1,8.787,0h5.278a4.395,4.395,0,0,1,8.787,0h5.278a4.391,4.391,0,0,1,8.78,0h5.278v-.007a4.352,4.352,0,0,1,5.131-4.229v-5.3a4.264,4.264,0,1,1,0-8.4v-5.355a4.271,4.271,0,1,1,0-8.4v-5.355a4.28,4.28,0,1,1-.741-8.473,5.225,5.225,0,0,1,.741.063v-5.348a5.145,5.145,0,0,1-.741.063,4.268,4.268,0,1,1,.741-8.473V100.5a4.28,4.28,0,1,1-.741-8.473,4.307,4.307,0,0,1,.741.07V86.743a4.271,4.271,0,1,1,0-8.4V72.985a5.224,5.224,0,0,1-.741.063,4.27,4.27,0,1,1,0-8.536,5.224,5.224,0,0,1,.741.063V59.22a4.265,4.265,0,1,1,0-8.4V45.461a4.28,4.28,0,1,1-.741-8.473,4.306,4.306,0,0,1,.741.07V31.7a5.223,5.223,0,0,1-.741.063,4.27,4.27,0,1,1,0-8.536,5.145,5.145,0,0,1,.741.063V17.939a4.355,4.355,0,0,1-5.131-4.2,4.394,4.394,0,0,1,5.131-4.2V4.243a5.145,5.145,0,0,1-.741.063" fill="#fffaee"></path><g id="Group_5161" data-name="Group 5161" transform="translate(43.573 35)"><path id="Path_64101" data-name="Path 64101" d="M8.585,83.163a1.078,1.078,0,0,0,1.886,0A20.176,20.176,0,0,1,18.5,75.134a1.078,1.078,0,0,0,0-1.886,20.177,20.177,0,0,1-8.029-8.029,1.078,1.078,0,0,0-1.886,0A20.177,20.177,0,0,1,.557,73.248a1.078,1.078,0,0,0,0,1.886,20.176,20.176,0,0,1,8.029,8.029" transform="translate(-0.001 -33.846)" fill="#68101a"></path><path id="Path_64102" data-name="Path 64102" d="M64.949,45.063,37.236,0,17.221,32.521h-.006a17.157,17.157,0,0,0,13.247,6.326,1.479,1.479,0,1,1,0,2.958,17.026,17.026,0,0,0-17.019,17.02,1.479,1.479,0,1,1-2.958,0A16.829,16.829,0,0,0,7.411,49.13a33.2,33.2,0,0,0-.625,25.122,30.185,30.185,0,0,0,17.681,17.8,36.391,36.391,0,0,0,25.5,0A30.556,30.556,0,0,0,68.054,73.144a32.914,32.914,0,0,0-3.1-28.08" transform="translate(-2.417 0)" fill="#68101a"></path></g></svg>