<svg xmlns="http://www.w3.org/2000/svg" width="155.882" height="165.075" viewBox="0 0 155.882 165.075"><g id="Group_5891" data-name="Group 5891" transform="translate(-1046 -913)"><path id="Path_64099" data-name="Path 64099" d="M155.141,4.306a4.343,4.343,0,0,1-4.39-4.3V0h-5.278a4.342,4.342,0,0,1-4.39,4.292A4.342,4.342,0,0,1,136.692,0h-5.278a4.352,4.352,0,0,1-4.4,4.292A4.342,4.342,0,0,1,122.626,0h-5.278a4.352,4.352,0,0,1-4.4,4.292A4.342,4.342,0,0,1,108.561,0h-5.278a4.348,4.348,0,0,1-4.4,4.292A4.346,4.346,0,0,1,94.5,0H89.217a4.346,4.346,0,0,1-4.391,4.292A4.348,4.348,0,0,1,80.429,0H75.152a4.342,4.342,0,0,1-4.39,4.292A4.353,4.353,0,0,1,66.364,0H61.086A4.342,4.342,0,0,1,56.7,4.292,4.352,4.352,0,0,1,52.3,0H47.021A4.342,4.342,0,0,1,42.63,4.292,4.342,4.342,0,0,1,38.24,0H32.962a4.352,4.352,0,0,1-4.4,4.292A4.342,4.342,0,0,1,24.174,0H18.9a4.348,4.348,0,0,1-4.4,4.292A4.342,4.342,0,0,1,10.109,0H4.719A4.343,4.343,0,0,1,.329,4.3C.217,4.3.112,4.292,0,4.286V9.479c.112-.007.217-.014.329-.014a4.342,4.342,0,0,1,4.39,4.272,4.348,4.348,0,0,1-4.39,4.278C.217,18.015.112,18.008,0,18v5.236c.112-.007.217-.014.329-.014a4.276,4.276,0,1,1,0,8.55c-.112,0-.217-.007-.329-.014V37a2.556,2.556,0,0,1,.329-.021,4.348,4.348,0,0,1,4.39,4.279,4.343,4.343,0,0,1-4.39,4.272c-.112,0-.217-.007-.329-.014v5.243c.112-.007.217-.014.329-.014a4.342,4.342,0,0,1,4.39,4.272A4.348,4.348,0,0,1,.329,59.3,2.558,2.558,0,0,1,0,59.275v5.243c.112-.007.217-.014.329-.014a4.342,4.342,0,0,1,4.39,4.271,4.348,4.348,0,0,1-4.39,4.279c-.112,0-.217-.007-.329-.014v5.237c.112-.007.217-.014.329-.014a4.348,4.348,0,0,1,4.39,4.279,4.342,4.342,0,0,1-4.39,4.271c-.112,0-.217-.007-.329-.014v5.244c.112-.007.217-.021.329-.021a4.28,4.28,0,1,1,0,8.557c-.112,0-.217-.014-.329-.021V105.8c.112-.007.217-.014.329-.014a4.342,4.342,0,0,1,4.39,4.272,4.348,4.348,0,0,1-4.39,4.279c-.112,0-.217-.007-.329-.014v5.236c.112-.007.217-.014.329-.014a4.348,4.348,0,0,1,4.39,4.278,4.342,4.342,0,0,1-4.39,4.272c-.112,0-.217-.007-.329-.014v5.243c.112-.007.217-.021.329-.021a4.28,4.28,0,1,1,0,8.557c-.112,0-.217-.014-.329-.021v5.243c.112-.007.217-.014.329-.014a4.342,4.342,0,0,1,4.39,4.272,4.348,4.348,0,0,1-4.39,4.278c-.112,0-.217-.007-.329-.014V160.8c.112-.007.217-.021.329-.021a4.348,4.348,0,0,1,4.39,4.3h5.39a4.395,4.395,0,0,1,8.787,0h5.278a4.4,4.4,0,0,1,8.788,0H38.24a4.392,4.392,0,0,1,8.781,0H52.3a4.395,4.395,0,0,1,8.787,0h5.278a4.4,4.4,0,0,1,8.788,0h5.278a4.4,4.4,0,0,1,8.788,0H94.5a4.395,4.395,0,0,1,8.787,0h5.278a4.395,4.395,0,0,1,8.787,0h5.278a4.395,4.395,0,0,1,8.787,0h5.278a4.391,4.391,0,0,1,8.78,0h5.278v-.007a4.352,4.352,0,0,1,5.131-4.229v-5.3a4.264,4.264,0,1,1,0-8.4v-5.355a4.271,4.271,0,1,1,0-8.4v-5.355a4.28,4.28,0,1,1-.741-8.473,5.225,5.225,0,0,1,.741.063v-5.348a5.145,5.145,0,0,1-.741.063,4.268,4.268,0,1,1,.741-8.473V100.5a4.28,4.28,0,1,1-.741-8.473,4.307,4.307,0,0,1,.741.07V86.743a4.271,4.271,0,1,1,0-8.4V72.985a5.224,5.224,0,0,1-.741.063,4.27,4.27,0,1,1,0-8.536,5.224,5.224,0,0,1,.741.063V59.22a4.265,4.265,0,1,1,0-8.4V45.461a4.28,4.28,0,1,1-.741-8.473,4.306,4.306,0,0,1,.741.07V31.7a5.223,5.223,0,0,1-.741.063,4.27,4.27,0,1,1,0-8.536,5.145,5.145,0,0,1,.741.063V17.939a4.355,4.355,0,0,1-5.131-4.2,4.394,4.394,0,0,1,5.131-4.2V4.243a5.145,5.145,0,0,1-.741.063" transform="translate(1046 913)" fill="#fffaee"></path><g id="Group_5871" data-name="Group 5871" transform="translate(1087 954)"><path id="Path_64264" data-name="Path 64264" d="M8.6,98.483c.142.135.967-.4,1.428.671l2.366,9.065c.086.687-.417.944-1.019,1.015a57.3,57.3,0,0,1-8.405,0c-.441-.051-1.024-.251-1.092-.768l2.4-9.353c.295-.671.81-.69,1.468-.632V82.61c.3-2.711,2.062-3.695,4.194-4.876C19.624,72.369,30.187,67.958,40,62.779l.595-.085c10.471,5.041,20.931,10.274,31.251,15.624a1.346,1.346,0,0,1-.479,2.224L41.141,95.663a2.11,2.11,0,0,1-1.861-.229L10.566,80.972c-.912-.339-1.882.924-1.968,1.8Zm31.208-22.29c-2.243.211-5.526,1.98-3.58,4.488,2.231,2.876,9.841,1.823,8.954-2.069-.424-1.861-3.754-2.572-5.374-2.42" transform="translate(-1.406 -62.694)" fill="#68101a"></path><path id="Path_64265" data-name="Path 64265" d="M111.749,162.759v15.033a30.913,30.913,0,0,1-43.839,0V162.759l20.1,10.053a4.158,4.158,0,0,0,3.646,0Z" transform="translate(-50.804 -137.553)" fill="#68101a"></path><path id="Path_64266" data-name="Path 64266" d="M28.519,267.586l-.064,5.713c-8.964,1.315-18.067,2.407-27.086,3.625A1.49,1.49,0,0,1,0,275.852l2.777-10.93c.234-.9,1.155-.967,1.962-.85Z" transform="translate(0 -213.314)" fill="#68101a"></path><path id="Path_64267" data-name="Path 64267" d="M179.941,267.636l23.787-3.507c1.486-.092,1.67.009,2.122,1.362,1.1,3.283,1.746,7.047,2.617,10.418a1.49,1.49,0,0,1-1.368,1.072l-26.885-3.491-.2-.134Z" transform="translate(-134.615 -213.37)" fill="#68101a"></path><path id="Path_64268" data-name="Path 64268" d="M179.935,311.459l24.861,3.277-3.221,6.689a2.333,2.333,0,0,1-1.59,1.112l-20.05-3.52Z" transform="translate(-134.61 -248.797)" fill="#68101a"></path><path id="Path_64269" data-name="Path 64269" d="M39.42,311.459v7.559l-20.05,3.52a2.333,2.333,0,0,1-1.59-1.112l-3.221-6.689Z" transform="translate(-10.892 -248.797)" fill="#68101a"></path><rect id="Rectangle_1926" data-name="Rectangle 1926" width="11.422" height="14.949" transform="translate(31.215 54.768)" fill="#68101a"></rect><path id="Path_64270" data-name="Path 64270" d="M144.594,349.984c2.1.117,4.38-.166,6.464,0,1.869.149,3.951.827,5.845,1.042l.276.228c.184.978,2.1,3.889,1.843,4.665-.071.212-.2.254-.407.286-.822.126-4.952-1.861-6.043-2.188l-2.431,6.131a.641.641,0,0,1-.559.055c-.555-.159-4.252-9.108-4.987-10.221" transform="translate(-108.172 -277.578)" fill="#68101a"></path><path id="Path_64271" data-name="Path 64271" d="M97.138,353.637c-.288-.215-5.289,2.69-6.166,2.567a.605.605,0,0,1-.365-.329c-.183-.573,1.381-3.722,1.531-4.554,3.022-.422,6.014-1.4,9.1-1.188a19.431,19.431,0,0,1,1.311,2.551,2.177,2.177,0,0,1,.259.843,56.266,56.266,0,0,1-2.008,5.528c-.228.366-.515.668-.97.383s-2.243-4.992-2.686-5.8" transform="translate(-67.773 -277.706)" fill="#68101a"></path></g></g></svg>