<svg xmlns="http://www.w3.org/2000/svg" width="155.882" height="165.075" viewBox="0 0 155.882 165.075"><g id="Group_5890" data-name="Group 5890" transform="translate(-740 -913)"><path id="Path_64098" data-name="Path 64098" d="M155.141,4.306a4.343,4.343,0,0,1-4.39-4.3V0h-5.278a4.342,4.342,0,0,1-4.39,4.292A4.342,4.342,0,0,1,136.692,0h-5.278a4.352,4.352,0,0,1-4.4,4.292A4.342,4.342,0,0,1,122.626,0h-5.278a4.352,4.352,0,0,1-4.4,4.292A4.342,4.342,0,0,1,108.561,0h-5.278a4.348,4.348,0,0,1-4.4,4.292A4.346,4.346,0,0,1,94.5,0H89.217a4.346,4.346,0,0,1-4.391,4.292A4.348,4.348,0,0,1,80.429,0H75.152a4.342,4.342,0,0,1-4.39,4.292A4.353,4.353,0,0,1,66.364,0H61.086A4.342,4.342,0,0,1,56.7,4.292,4.352,4.352,0,0,1,52.3,0H47.021A4.342,4.342,0,0,1,42.63,4.292,4.342,4.342,0,0,1,38.24,0H32.962a4.352,4.352,0,0,1-4.4,4.292A4.342,4.342,0,0,1,24.174,0H18.9a4.348,4.348,0,0,1-4.4,4.292A4.342,4.342,0,0,1,10.109,0H4.719A4.343,4.343,0,0,1,.329,4.3C.217,4.3.112,4.292,0,4.286V9.479c.112-.007.217-.014.329-.014a4.342,4.342,0,0,1,4.39,4.272,4.348,4.348,0,0,1-4.39,4.278C.217,18.015.112,18.008,0,18v5.236c.112-.007.217-.014.329-.014a4.276,4.276,0,1,1,0,8.55c-.112,0-.217-.007-.329-.014V37a2.556,2.556,0,0,1,.329-.021,4.348,4.348,0,0,1,4.39,4.279,4.343,4.343,0,0,1-4.39,4.272c-.112,0-.217-.007-.329-.014v5.243c.112-.007.217-.014.329-.014a4.342,4.342,0,0,1,4.39,4.272A4.348,4.348,0,0,1,.329,59.3,2.558,2.558,0,0,1,0,59.275v5.243c.112-.007.217-.014.329-.014a4.342,4.342,0,0,1,4.39,4.271,4.348,4.348,0,0,1-4.39,4.279c-.112,0-.217-.007-.329-.014v5.237c.112-.007.217-.014.329-.014a4.348,4.348,0,0,1,4.39,4.279,4.342,4.342,0,0,1-4.39,4.271c-.112,0-.217-.007-.329-.014v5.244c.112-.007.217-.021.329-.021a4.28,4.28,0,1,1,0,8.557c-.112,0-.217-.014-.329-.021V105.8c.112-.007.217-.014.329-.014a4.342,4.342,0,0,1,4.39,4.272,4.348,4.348,0,0,1-4.39,4.279c-.112,0-.217-.007-.329-.014v5.236c.112-.007.217-.014.329-.014a4.348,4.348,0,0,1,4.39,4.278,4.342,4.342,0,0,1-4.39,4.272c-.112,0-.217-.007-.329-.014v5.243c.112-.007.217-.021.329-.021a4.28,4.28,0,1,1,0,8.557c-.112,0-.217-.014-.329-.021v5.243c.112-.007.217-.014.329-.014a4.342,4.342,0,0,1,4.39,4.272,4.348,4.348,0,0,1-4.39,4.278c-.112,0-.217-.007-.329-.014V160.8c.112-.007.217-.021.329-.021a4.348,4.348,0,0,1,4.39,4.3h5.39a4.395,4.395,0,0,1,8.787,0h5.278a4.4,4.4,0,0,1,8.788,0H38.24a4.392,4.392,0,0,1,8.781,0H52.3a4.395,4.395,0,0,1,8.787,0h5.278a4.4,4.4,0,0,1,8.788,0h5.278a4.4,4.4,0,0,1,8.788,0H94.5a4.395,4.395,0,0,1,8.787,0h5.278a4.395,4.395,0,0,1,8.787,0h5.278a4.395,4.395,0,0,1,8.787,0h5.278a4.391,4.391,0,0,1,8.78,0h5.278v-.007a4.352,4.352,0,0,1,5.131-4.229v-5.3a4.264,4.264,0,1,1,0-8.4v-5.355a4.271,4.271,0,1,1,0-8.4v-5.355a4.28,4.28,0,1,1-.741-8.473,5.225,5.225,0,0,1,.741.063v-5.348a5.145,5.145,0,0,1-.741.063,4.268,4.268,0,1,1,.741-8.473V100.5a4.28,4.28,0,1,1-.741-8.473,4.307,4.307,0,0,1,.741.07V86.743a4.271,4.271,0,1,1,0-8.4V72.985a5.224,5.224,0,0,1-.741.063,4.27,4.27,0,1,1,0-8.536,5.224,5.224,0,0,1,.741.063V59.22a4.265,4.265,0,1,1,0-8.4V45.461a4.28,4.28,0,1,1-.741-8.473,4.306,4.306,0,0,1,.741.07V31.7a5.223,5.223,0,0,1-.741.063,4.27,4.27,0,1,1,0-8.536,5.145,5.145,0,0,1,.741.063V17.939a4.355,4.355,0,0,1-5.131-4.2,4.394,4.394,0,0,1,5.131-4.2V4.243a5.145,5.145,0,0,1-.741.063" transform="translate(740 913)" fill="#fffaee"></path><g id="Group_5868" data-name="Group 5868" transform="translate(781 954)"><path id="Path_64302" data-name="Path 64302" d="M1509.367,193.718a78.492,78.492,0,0,0-34.906,2.835V174.227a9.047,9.047,0,0,0,7.066-7.729c.119-1.184-.219-3.439.058-4.372a35.521,35.521,0,0,0,2.3-3.015c.77-1.708.489-3.116.933-4.737.519-1.9,3.1-3.836,4.316-5.606a21.01,21.01,0,0,0,3.579-10.684,65.787,65.787,0,0,1,10.193-.541,39.157,39.157,0,0,1,5.617.584c.194.043.843.227.843.4Zm-16.175-40.006a1.828,1.828,0,0,0,.177,3.469,51.883,51.883,0,0,0,7.393.026,1.81,1.81,0,0,0,.328-3.5Zm-5.315,12.4c-1.9.923-1.423,3.2.686,3.49,3.631.494,8.277-.322,12.017,0a1.786,1.786,0,0,0,.36-3.518Zm-2.826,12.235a1.768,1.768,0,0,0-.391,3.487l14.7.018c1.95-.264,2.009-3.212-.378-3.536-4.191-.569-9.616.354-13.935.031" transform="translate(-1436.013 -113.257)" fill="#68101a"></path><path id="Path_64303" data-name="Path 64303" d="M1301.912,138.488c.066-.206.621-.348.843-.4a37.13,37.13,0,0,1,5.263-.584,62.809,62.809,0,0,1,10.543.545,21.15,21.15,0,0,0,3.583,10.68c1.214,1.777,3.795,3.7,4.316,5.607.573,2.091.1,3.545,1.426,5.662.344.549,1.726,1.813,1.808,2.089.306,1.031-.095,3.442.055,4.729a9.175,9.175,0,0,0,7.068,7.372v22.325a76.67,76.67,0,0,0-34.905-2.835Zm8.457,14.3a1.779,1.779,0,0,0,0,3.462,48.805,48.805,0,0,0,7.39.029,1.781,1.781,0,0,0,.148-3.491,49.912,49.912,0,0,0-7.537,0m-.181,13.285a1.8,1.8,0,0,0,.51,3.49c3.74-.322,8.387.5,12.017,0,2.2-.3,2.578-2.777.536-3.518Zm.718,12.234c-2.753.4-2.49,3.438.151,3.655,4.7-.307,10.065.48,14.685.018,3-.3,3.007-3.36.16-3.7-4.647.406-10.489-.632-14.995.027" transform="translate(-1301.912 -113.22)" fill="#68101a"></path><path id="Path_64304" data-name="Path 64304" d="M1410.45,101.757V89.974c0-.591-1.073-1.316-1.687-1.342-.673-.028-1.856.672-1.856,1.342v11.783h-2.747c-.791,0-2.613-1.558-3.071-2.245-.978-1.466-.658-2.793-.961-4.355-.631-3.251-3.224-4.713-4.985-7.241-9.382-13.468,4.524-30.923,19.734-24.872a16.64,16.64,0,0,1,6.987,25.408c-1.788,2.378-4.005,3.452-4.636,6.7-.3,1.562.018,2.889-.961,4.355-.458.686-2.28,2.245-3.071,2.245Zm-2.528-33.981c-2.016.167-2.237,3.07-.535,3.468,1.42.332,2.25.052,3.717.89s2.1,2.985,3.821,2.654c2.125-.409,1.322-2.586.3-3.766-1.549-1.8-4.917-3.443-7.307-3.245" transform="translate(-1372.001 -54.429)" fill="#68101a"></path><path id="Path_64305" data-name="Path 64305" d="M1453.287,256.15v2.569a17.279,17.279,0,0,1-.672,1.631,5.344,5.344,0,0,1-9.214.105,7.4,7.4,0,0,1-.744-1.736V256.15c.191-.066.389.177.443.177h9.745c.054,0,.252-.243.443-.177" transform="translate(-1411.294 -205.456)" fill="#68101a"></path><path id="Path_64306" data-name="Path 64306" d="M1338.269,28.742a2.186,2.186,0,0,1,1.91.5,47.1,47.1,0,0,1,4.868,4.877c1.486,1.937-.1,4.008-2.364,3.073-1.044-1.34-5.452-4.729-5.741-6.132a1.984,1.984,0,0,1,1.327-2.314" transform="translate(-1329.106 -28.685)" fill="#68101a"></path><path id="Path_64307" data-name="Path 64307" d="M1563.342,28.78a1.912,1.912,0,0,1,1.967,3.031,68.58,68.58,0,0,1-5.294,5.337,1.936,1.936,0,0,1-2.841-2.487,61.928,61.928,0,0,1,5.148-5.306,2.814,2.814,0,0,1,1.02-.576" transform="translate(-1500.135 -28.721)" fill="#68101a"></path></g></g></svg>