<svg xmlns="http://www.w3.org/2000/svg" width="155.882" height="165.075" viewBox="0 0 155.882 165.075"><g id="Group_5879" data-name="Group 5879" transform="translate(-1337 -239)"><path id="Path_64099" data-name="Path 64099" d="M155.141,4.306a4.343,4.343,0,0,1-4.39-4.3V0h-5.278a4.342,4.342,0,0,1-4.39,4.292A4.342,4.342,0,0,1,136.692,0h-5.278a4.352,4.352,0,0,1-4.4,4.292A4.342,4.342,0,0,1,122.626,0h-5.278a4.352,4.352,0,0,1-4.4,4.292A4.342,4.342,0,0,1,108.561,0h-5.278a4.348,4.348,0,0,1-4.4,4.292A4.346,4.346,0,0,1,94.5,0H89.217a4.346,4.346,0,0,1-4.391,4.292A4.348,4.348,0,0,1,80.429,0H75.152a4.342,4.342,0,0,1-4.39,4.292A4.353,4.353,0,0,1,66.364,0H61.086A4.342,4.342,0,0,1,56.7,4.292,4.352,4.352,0,0,1,52.3,0H47.021A4.342,4.342,0,0,1,42.63,4.292,4.342,4.342,0,0,1,38.24,0H32.962a4.352,4.352,0,0,1-4.4,4.292A4.342,4.342,0,0,1,24.174,0H18.9a4.348,4.348,0,0,1-4.4,4.292A4.342,4.342,0,0,1,10.109,0H4.719A4.343,4.343,0,0,1,.329,4.3C.217,4.3.112,4.292,0,4.286V9.479c.112-.007.217-.014.329-.014a4.342,4.342,0,0,1,4.39,4.272,4.348,4.348,0,0,1-4.39,4.278C.217,18.015.112,18.008,0,18v5.236c.112-.007.217-.014.329-.014a4.276,4.276,0,1,1,0,8.55c-.112,0-.217-.007-.329-.014V37a2.556,2.556,0,0,1,.329-.021,4.348,4.348,0,0,1,4.39,4.279,4.343,4.343,0,0,1-4.39,4.272c-.112,0-.217-.007-.329-.014v5.243c.112-.007.217-.014.329-.014a4.342,4.342,0,0,1,4.39,4.272A4.348,4.348,0,0,1,.329,59.3,2.558,2.558,0,0,1,0,59.275v5.243c.112-.007.217-.014.329-.014a4.342,4.342,0,0,1,4.39,4.271,4.348,4.348,0,0,1-4.39,4.279c-.112,0-.217-.007-.329-.014v5.237c.112-.007.217-.014.329-.014a4.348,4.348,0,0,1,4.39,4.279,4.342,4.342,0,0,1-4.39,4.271c-.112,0-.217-.007-.329-.014v5.244c.112-.007.217-.021.329-.021a4.28,4.28,0,1,1,0,8.557c-.112,0-.217-.014-.329-.021V105.8c.112-.007.217-.014.329-.014a4.342,4.342,0,0,1,4.39,4.272,4.348,4.348,0,0,1-4.39,4.279c-.112,0-.217-.007-.329-.014v5.236c.112-.007.217-.014.329-.014a4.348,4.348,0,0,1,4.39,4.278,4.342,4.342,0,0,1-4.39,4.272c-.112,0-.217-.007-.329-.014v5.243c.112-.007.217-.021.329-.021a4.28,4.28,0,1,1,0,8.557c-.112,0-.217-.014-.329-.021v5.243c.112-.007.217-.014.329-.014a4.342,4.342,0,0,1,4.39,4.272,4.348,4.348,0,0,1-4.39,4.278c-.112,0-.217-.007-.329-.014V160.8c.112-.007.217-.021.329-.021a4.348,4.348,0,0,1,4.39,4.3h5.39a4.395,4.395,0,0,1,8.787,0h5.278a4.4,4.4,0,0,1,8.788,0H38.24a4.392,4.392,0,0,1,8.781,0H52.3a4.395,4.395,0,0,1,8.787,0h5.278a4.4,4.4,0,0,1,8.788,0h5.278a4.4,4.4,0,0,1,8.788,0H94.5a4.395,4.395,0,0,1,8.787,0h5.278a4.395,4.395,0,0,1,8.787,0h5.278a4.395,4.395,0,0,1,8.787,0h5.278a4.391,4.391,0,0,1,8.78,0h5.278v-.007a4.352,4.352,0,0,1,5.131-4.229v-5.3a4.264,4.264,0,1,1,0-8.4v-5.355a4.271,4.271,0,1,1,0-8.4v-5.355a4.28,4.28,0,1,1-.741-8.473,5.225,5.225,0,0,1,.741.063v-5.348a5.145,5.145,0,0,1-.741.063,4.268,4.268,0,1,1,.741-8.473V100.5a4.28,4.28,0,1,1-.741-8.473,4.307,4.307,0,0,1,.741.07V86.743a4.271,4.271,0,1,1,0-8.4V72.985a5.224,5.224,0,0,1-.741.063,4.27,4.27,0,1,1,0-8.536,5.224,5.224,0,0,1,.741.063V59.22a4.265,4.265,0,1,1,0-8.4V45.461a4.28,4.28,0,1,1-.741-8.473,4.306,4.306,0,0,1,.741.07V31.7a5.223,5.223,0,0,1-.741.063,4.27,4.27,0,1,1,0-8.536,5.145,5.145,0,0,1,.741.063V17.939a4.355,4.355,0,0,1-5.131-4.2,4.394,4.394,0,0,1,5.131-4.2V4.243a5.145,5.145,0,0,1-.741.063" transform="translate(1337 239)" fill="#fffaee"></path><g id="Group_5864" data-name="Group 5864" transform="translate(1374 280)"><path id="Path_64286" data-name="Path 64286" d="M3177.779,316.4h-19.285a2.827,2.827,0,0,1-1.624-2.022c.362-4.888-.469-10.437,0-15.245.129-1.338,1.045-1.79,1.97-2.568,4.014-3.38,8.87-7.128,13.126-10.21a19.977,19.977,0,0,1,11.564-4.318c8.439-.464,17.3.366,25.78,0,8.484.623,7.8,11.627.8,12.321-4.447.441-9.542-.358-14.059.04a2.354,2.354,0,0,0-.186,4.646c5.228-.588,13.467,1.23,18.163-.93a11.27,11.27,0,0,0,6.362-10.168c3.409-2.721,6.379-6.056,10.014-8.46,7.546-2.468,12.394,5.5,6.529,11.229s-12.616,10.932-18.585,16.581a14.136,14.136,0,0,1-6.457,2.456l-24.6.037Z" transform="translate(-3156.72 -233.383)" fill="#68101a"></path><path id="Path_64287" data-name="Path 64287" d="M3269.741,168.021c.914.636,1.706,1.416,2.663,2a15.285,15.285,0,0,0,18.627-1.943c.307-.156,1.634,1.031,1.944,1.305a19.377,19.377,0,0,1,6.159,16.374,2.388,2.388,0,0,1-2.183,2.03h-32.914a2.348,2.348,0,0,1-2.188-2.188,19.123,19.123,0,0,1,7.892-17.578" transform="translate(-3239.016 -146.412)" fill="#68101a"></path><path id="Path_64288" data-name="Path 64288" d="M3308.438,68.3c8.949-1.074,15.294,7.929,10.815,15.839-4.293,7.582-15.843,6.717-19.006-1.419-2.4-6.161,1.487-13.616,8.191-14.42" transform="translate(-3268.616 -68.208)" fill="#68101a"></path></g></g></svg>