<svg xmlns="http://www.w3.org/2000/svg" width="155.882" height="165.075" viewBox="0 0 155.882 165.075"><g id="Group_5880" data-name="Group 5880" transform="translate(-1629 -239)"><path id="Path_64099" data-name="Path 64099" d="M155.141,4.306a4.343,4.343,0,0,1-4.39-4.3V0h-5.278a4.342,4.342,0,0,1-4.39,4.292A4.342,4.342,0,0,1,136.692,0h-5.278a4.352,4.352,0,0,1-4.4,4.292A4.342,4.342,0,0,1,122.626,0h-5.278a4.352,4.352,0,0,1-4.4,4.292A4.342,4.342,0,0,1,108.561,0h-5.278a4.348,4.348,0,0,1-4.4,4.292A4.346,4.346,0,0,1,94.5,0H89.217a4.346,4.346,0,0,1-4.391,4.292A4.348,4.348,0,0,1,80.429,0H75.152a4.342,4.342,0,0,1-4.39,4.292A4.353,4.353,0,0,1,66.364,0H61.086A4.342,4.342,0,0,1,56.7,4.292,4.352,4.352,0,0,1,52.3,0H47.021A4.342,4.342,0,0,1,42.63,4.292,4.342,4.342,0,0,1,38.24,0H32.962a4.352,4.352,0,0,1-4.4,4.292A4.342,4.342,0,0,1,24.174,0H18.9a4.348,4.348,0,0,1-4.4,4.292A4.342,4.342,0,0,1,10.109,0H4.719A4.343,4.343,0,0,1,.329,4.3C.217,4.3.112,4.292,0,4.286V9.479c.112-.007.217-.014.329-.014a4.342,4.342,0,0,1,4.39,4.272,4.348,4.348,0,0,1-4.39,4.278C.217,18.015.112,18.008,0,18v5.236c.112-.007.217-.014.329-.014a4.276,4.276,0,1,1,0,8.55c-.112,0-.217-.007-.329-.014V37a2.556,2.556,0,0,1,.329-.021,4.348,4.348,0,0,1,4.39,4.279,4.343,4.343,0,0,1-4.39,4.272c-.112,0-.217-.007-.329-.014v5.243c.112-.007.217-.014.329-.014a4.342,4.342,0,0,1,4.39,4.272A4.348,4.348,0,0,1,.329,59.3,2.558,2.558,0,0,1,0,59.275v5.243c.112-.007.217-.014.329-.014a4.342,4.342,0,0,1,4.39,4.271,4.348,4.348,0,0,1-4.39,4.279c-.112,0-.217-.007-.329-.014v5.237c.112-.007.217-.014.329-.014a4.348,4.348,0,0,1,4.39,4.279,4.342,4.342,0,0,1-4.39,4.271c-.112,0-.217-.007-.329-.014v5.244c.112-.007.217-.021.329-.021a4.28,4.28,0,1,1,0,8.557c-.112,0-.217-.014-.329-.021V105.8c.112-.007.217-.014.329-.014a4.342,4.342,0,0,1,4.39,4.272,4.348,4.348,0,0,1-4.39,4.279c-.112,0-.217-.007-.329-.014v5.236c.112-.007.217-.014.329-.014a4.348,4.348,0,0,1,4.39,4.278,4.342,4.342,0,0,1-4.39,4.272c-.112,0-.217-.007-.329-.014v5.243c.112-.007.217-.021.329-.021a4.28,4.28,0,1,1,0,8.557c-.112,0-.217-.014-.329-.021v5.243c.112-.007.217-.014.329-.014a4.342,4.342,0,0,1,4.39,4.272,4.348,4.348,0,0,1-4.39,4.278c-.112,0-.217-.007-.329-.014V160.8c.112-.007.217-.021.329-.021a4.348,4.348,0,0,1,4.39,4.3h5.39a4.395,4.395,0,0,1,8.787,0h5.278a4.4,4.4,0,0,1,8.788,0H38.24a4.392,4.392,0,0,1,8.781,0H52.3a4.395,4.395,0,0,1,8.787,0h5.278a4.4,4.4,0,0,1,8.788,0h5.278a4.4,4.4,0,0,1,8.788,0H94.5a4.395,4.395,0,0,1,8.787,0h5.278a4.395,4.395,0,0,1,8.787,0h5.278a4.395,4.395,0,0,1,8.787,0h5.278a4.391,4.391,0,0,1,8.78,0h5.278v-.007a4.352,4.352,0,0,1,5.131-4.229v-5.3a4.264,4.264,0,1,1,0-8.4v-5.355a4.271,4.271,0,1,1,0-8.4v-5.355a4.28,4.28,0,1,1-.741-8.473,5.225,5.225,0,0,1,.741.063v-5.348a5.145,5.145,0,0,1-.741.063,4.268,4.268,0,1,1,.741-8.473V100.5a4.28,4.28,0,1,1-.741-8.473,4.307,4.307,0,0,1,.741.07V86.743a4.271,4.271,0,1,1,0-8.4V72.985a5.224,5.224,0,0,1-.741.063,4.27,4.27,0,1,1,0-8.536,5.224,5.224,0,0,1,.741.063V59.22a4.265,4.265,0,1,1,0-8.4V45.461a4.28,4.28,0,1,1-.741-8.473,4.306,4.306,0,0,1,.741.07V31.7a5.223,5.223,0,0,1-.741.063,4.27,4.27,0,1,1,0-8.536,5.145,5.145,0,0,1,.741.063V17.939a4.355,4.355,0,0,1-5.131-4.2,4.394,4.394,0,0,1,5.131-4.2V4.243a5.145,5.145,0,0,1-.741.063" transform="translate(1629 239)" fill="#fffaee"></path><g id="Group_5866" data-name="Group 5866" transform="translate(1666 280)"><path id="Path_64272" data-name="Path 64272" d="M2388.295,49.7a28.973,28.973,0,0,1,0,3.874,23.642,23.642,0,0,1-1.862,6.935c-1.78,4.117-4.967,6.934-7.825,10.259-.405.254-2.187-.606-2.78-.773a23.86,23.86,0,0,0-19.157,2.4c-1.1.656-2.085,1.485-3.16,2.172l-20.407-20.4,19.121-19.144c13.375-11.47,34.647-2.834,36.07,14.683" transform="translate(-2305.723 -29.807)" fill="#68101a"></path><path id="Path_64273" data-name="Path 64273" d="M2222.124,222.237a35,35,0,0,1-5,0c-17.627-1.675-25.706-23.261-13.885-36.564,5.553-6.25,12.415-11.868,18.077-18.079l.386-.225,20.277,20.4a37.26,37.26,0,0,0-3.627,6.382,23.854,23.854,0,0,0-.61,15.778c.164.58.948,2.224.774,2.614-3.732,3.969-7.475,7.449-12.876,8.926a22.32,22.32,0,0,1-3.512.765" transform="translate(-2197.66 -139.56)" fill="#68101a"></path><path id="Path_64274" data-name="Path 64274" d="M2538.587,265.225a27.649,27.649,0,0,1,0,3.874,23.328,23.328,0,0,1-.691,3.263,19.551,19.551,0,0,1-16.418,14.008V247.954a19.52,19.52,0,0,1,16.418,14.008,23.32,23.32,0,0,1,.691,3.263" transform="translate(-2456.016 -203.854)" fill="#68101a"></path><path id="Path_64275" data-name="Path 64275" d="M2430.977,247.954V286.37a19.606,19.606,0,0,1-15.571-11.788,19.369,19.369,0,0,1,15.571-26.627" transform="translate(-2370.196 -203.854)" fill="#68101a"></path></g></g></svg>